# xmcd
#
# Track frame offsets:
#	150
#	15736
#	33802
#	49107
#	66184
#	80865
#	98582
#	118017
#	132972
#	148444
#	164437
#	179794
#	199306
#	219301
#	237258
#	252994
#	270572
#	288214
#
# Disc length: 4054 seconds
#
# Revision: 5
# Processed by: cddbd v1.5.1PL0 Copyright (c) Steve Scherf et al.
# Submitted via: audiograbber 1.83.01
#
DISCID=120fd412
DTITLE=2004-08 Country Radio - 2004-08 Country Radio
DYEAR=2004
DGENRE=Country
TTITLE0=Lonestar - Mr. Mom
TTITLE1=SheDaisy - Come Home Soon
TTITLE2=Blake Shelton - Some Beach
TTITLE3=Clint Black - My Imagination
TTITLE4=Clay Walker - Jesus Was A Country Boy
TTITLE5=George Strait - I Hate Everything @
TTITLE6=Nototious Cherry Bombs/Rodney Crowell/Vince Gill - It's Hard To Kiss Th
TTITLE6=e Lips At Night That Chew Yo
TTITLE7=Darryl Worley - Awful Beautiful Life
TTITLE8=Diamond Rio - Can't You Tell
TTITLE9=Montgomery Gentry - You Do Your Thing
TTITLE10=Brooks and Dunn - That's What It's All About
TTITLE11=Emerson Drive - November
TTITLE12=John Michael Montgomery - Goes Good With Beer
TTITLE13=Sugarland - Baby Girl
TTITLE14=Restless Heart - Feel My Way To You
TTITLE15=Kid Rock - Single Father
TTITLE16=Doug Stone - How Do I Get Off The Moon
TTITLE17=Katrina Elam - No End In Sight
EXTD=
EXTT0=
EXTT1=
EXTT2=
EXTT3=
EXTT4=
EXTT5=
EXTT6=
EXTT7=
EXTT8=
EXTT9=
EXTT10=
EXTT11=
EXTT12=
EXTT13=
EXTT14=
EXTT15=
EXTT16=
EXTT17=
PLAYORDER=
